<svg width="20" height="20" viewBox="0 0 20 20" fill="none" xmlns="http://www.w3.org/2000/svg">
<path d="M11.7179 1.89747L12.6409 2.82051L14.1153 4.2949L15.1025 5.28208C16.1837 4.38892 17.9512 2.20773 16.3717 0.628246C14.7923 -0.951237 12.6111 0.81628 11.7179 1.89747Z" fill="#585C60"/>
<path d="M3.8205 13.0385L8.61535 11.7692L7.62818 10.7821L6.15378 9.30767L5.23075 8.38463L3.8205 13.0385Z" fill="#585C60"/>
<path d="M11.7179 1.89747L5.23075 8.38463L6.15378 9.30767L12.6409 2.82051L11.7179 1.89747Z" fill="#585C60"/>
<path d="M8.61535 11.7692L15.1025 5.28208L14.1153 4.2949L7.62818 10.7821L8.61535 11.7692Z" fill="#585C60"/>
<path d="M7.62819 1.41025H2.83333C2.22222 1.41025 1 1.83332 1 3.52563C1 5.21793 1 10.7179 1 13.2564C1.04701 13.9615 1.5359 15.3717 3.11538 15.3717C4.69486 15.3717 10.7307 15.3717 13.5512 15.3717C14.1624 15.3247 15.3846 14.8923 15.3846 13.5384C15.3846 12.1846 15.3846 9.68373 15.3846 8.60254" stroke="#585C60"/>
</svg>
