<svg width="19" height="20" viewBox="0 0 19 20" fill="none" xmlns="http://www.w3.org/2000/svg">
<path d="M17.6407 9.49502V16.652H14.6107L14.4577 16.67C11.6447 17.326 9.78074 17.799 8.85174 18.092C7.61774 18.481 7.15774 18.576 6.32074 18.632C5.69474 18.675 4.98374 18.434 4.65974 18.104C4.48074 17.922 4.34674 17.548 4.29374 16.968C4.28276 16.8464 4.23928 16.73 4.16786 16.6309C4.09643 16.5319 3.99968 16.4538 3.88774 16.405C3.63874 16.297 3.43174 16.121 3.25874 15.865C3.09874 15.631 2.99474 15.195 2.97574 14.564C2.9724 14.448 2.93951 14.3348 2.88019 14.235C2.82087 14.1353 2.73708 14.0523 2.63674 13.994C2.05474 13.657 1.76674 13.277 1.70674 12.831C1.64074 12.338 1.80074 11.783 2.21974 11.151C2.31805 11.0028 2.35467 10.8221 2.3218 10.6473C2.28893 10.4725 2.18917 10.3174 2.04374 10.215C1.64274 9.93302 1.42274 9.54102 1.36774 8.98502C1.27974 8.09902 1.84474 7.44402 3.12374 7.31302C4.26287 7.20035 5.413 7.29626 6.51774 7.59602C6.64306 7.62877 6.77513 7.62504 6.8984 7.58529C7.02167 7.54553 7.13103 7.47139 7.2136 7.37159C7.29617 7.27179 7.34852 7.15049 7.36448 7.02195C7.38045 6.89341 7.35938 6.76299 7.30374 6.64602C6.80374 5.58802 6.52574 4.71502 6.46074 4.03902C6.37574 3.14202 6.58274 2.49202 7.06674 1.95602C7.43374 1.55002 8.02074 1.31802 8.24074 1.36602C8.53074 1.42802 8.71974 1.59602 8.96574 2.18402C9.11074 2.53202 9.18074 2.82802 9.30074 3.51902C9.41574 4.17502 9.47874 4.47102 9.60974 4.85902C10.0047 6.03502 10.9737 7.25402 12.2747 8.09502C13.1865 8.68373 14.1747 9.14469 15.2117 9.46502C15.2765 9.48499 15.3439 9.4951 15.4117 9.49502H17.6407ZM17.6827 18.015C18.0057 18.024 18.2957 17.952 18.5387 17.782C18.8487 17.565 18.9947 17.223 18.9977 16.829L18.9947 9.50602C19.0287 9.11602 18.9137 8.75802 18.6417 8.49202C18.3867 8.24202 18.0537 8.12402 17.7017 8.13202H15.5167C14.6329 7.85039 13.7902 7.45294 13.0107 6.95002C11.9627 6.27202 11.1907 5.30002 10.8957 4.42402C10.7947 4.12202 10.7407 3.87202 10.6387 3.28402C10.5007 2.49502 10.4147 2.12802 10.2167 1.65602C9.80674 0.674018 9.26874 0.194018 8.52674 0.0330184C7.79674 -0.124982 6.73374 0.296018 6.06174 1.04002C5.31674 1.86402 4.98774 2.89502 5.10974 4.16902C5.16174 4.71702 5.31374 5.33002 5.56374 6.01302C4.70997 5.8886 3.84412 5.86979 2.98574 5.95702C0.978743 6.16202 -0.148258 7.46902 0.0157413 9.12102C0.0877419 9.83302 0.345743 10.438 0.784742 10.913C0.415743 11.624 0.268744 12.327 0.360743 13.013C0.466743 13.803 0.906742 14.461 1.63874 14.972C1.69574 15.665 1.85474 16.218 2.13674 16.632C2.35894 16.9665 2.64886 17.2506 2.98774 17.466C3.09574 18.15 3.32274 18.685 3.69374 19.061C4.30874 19.687 5.40774 20.06 6.41174 19.992C7.36474 19.928 7.92874 19.812 9.25874 19.392C10.1357 19.115 11.9517 18.655 14.6887 18.015H17.6837H17.6827ZM15.9817 9.18402C15.982 9.09455 15.9646 9.00591 15.9306 8.92318C15.8965 8.84045 15.8465 8.76525 15.7833 8.70189C15.7201 8.63854 15.6451 8.58827 15.5624 8.55397C15.4798 8.51967 15.3912 8.50202 15.3017 8.50202C15.2124 8.50228 15.1241 8.52013 15.0417 8.55454C14.9593 8.58896 14.8845 8.63927 14.8215 8.7026C14.7585 8.76593 14.7087 8.84104 14.6747 8.92364C14.6408 9.00624 14.6235 9.09472 14.6237 9.18402V16.862C14.6236 16.9513 14.6411 17.0398 14.6751 17.1223C14.7092 17.2049 14.7592 17.2799 14.8222 17.3431C14.8853 17.4064 14.9601 17.4566 15.0426 17.4909C15.125 17.5252 15.2134 17.5429 15.3027 17.543C15.392 17.5429 15.4804 17.5252 15.5629 17.4909C15.6453 17.4566 15.7202 17.4064 15.7833 17.3431C15.8463 17.2799 15.8963 17.2049 15.9304 17.1223C15.9644 17.0398 15.9819 16.9513 15.9817 16.862V9.18402Z" fill="#585C60"/>
</svg>
